<?xml version="1.0" encoding="UTF-8" standalone="no"?>
<svg
   id="ac356da0-b129-4ca5-aecc-4700531dd101"
   data-name="Layer 1"
   width="1129"
   height="663"
   viewBox="0 0 1129 663"
   version="1.1"
   sodipodi:docname="undraw_docusaurus_tree.svg"
   inkscape:version="1.1 (c68e22c387, 2021-05-23)"
   xmlns:inkscape="http://www.inkscape.org/namespaces/inkscape"
   xmlns:sodipodi="http://sodipodi.sourceforge.net/DTD/sodipodi-0.dtd"
   xmlns="http://www.w3.org/2000/svg"
   xmlns:svg="http://www.w3.org/2000/svg"
   xmlns:rdf="http://www.w3.org/1999/02/22-rdf-syntax-ns#"
   xmlns:cc="http://creativecommons.org/ns#"
   xmlns:dc="http://purl.org/dc/elements/1.1/">
  <defs
     id="defs81" />
  <sodipodi:namedview
     id="namedview79"
     pagecolor="#ffffff"
     bordercolor="#666666"
     borderopacity="1.0"
     inkscape:pageshadow="2"
     inkscape:pageopacity="0.0"
     inkscape:pagecheckerboard="0"
     showgrid="false"
     inkscape:zoom="1.1133747"
     inkscape:cx="564.5"
     inkscape:cy="331.42482"
     inkscape:window-width="1920"
     inkscape:window-height="1020"
     inkscape:window-x="0"
     inkscape:window-y="0"
     inkscape:window-maximized="1"
     inkscape:current-layer="ac356da0-b129-4ca5-aecc-4700531dd101" />
  <title
     id="title2">docu_tree</title>
  <circle
     cx="321"
     cy="321"
     r="321"
     fill="#f2f2f2"
     id="circle4" />
  <ellipse
     cx="559"
     cy="635.49998"
     rx="514"
     ry="27.50002"
     fill="#3f3d56"
     id="ellipse6" />
  <ellipse
     cx="558"
     cy="627"
     rx="460"
     ry="22"
     opacity="0.2"
     id="ellipse8" />
  <rect
     x="131"
     y="152.5"
     width="840"
     height="50"
     fill="#3f3d56"
     id="rect10" />
  <path
     d="M166.5,727.3299A21.67009,21.67009,0,0,0,188.1701,749H984.8299A21.67009,21.67009,0,0,0,1006.5,727.3299V296h-840Z"
     transform="translate(-35.5 -118.5)"
     fill="#3f3d56"
     id="path12" />
  <path
     d="M984.8299,236H188.1701A21.67009,21.67009,0,0,0,166.5,257.6701V296h840V257.6701A21.67009,21.67009,0,0,0,984.8299,236Z"
     transform="translate(-35.5 -118.5)"
     fill="#3f3d56"
     id="path14" />
  <path
     d="M984.8299,236H188.1701A21.67009,21.67009,0,0,0,166.5,257.6701V296h840V257.6701A21.67009,21.67009,0,0,0,984.8299,236Z"
     transform="translate(-35.5 -118.5)"
     opacity="0.2"
     id="path16" />
  <circle
     cx="181"
     cy="147.5"
     r="13"
     fill="#3f3d56"
     id="circle18" />
  <circle
     cx="217"
     cy="147.5"
     r="13"
     fill="#3f3d56"
     id="circle20" />
  <circle
     cx="253"
     cy="147.5"
     r="13"
     fill="#3f3d56"
     id="circle22" />
  <path
     id="rect24"
     d="M 221.97852 214.57031 C 191.19035 214.67568 171.02643 214.82682 169.61523 215.02148 C 169.43531 215.19689 169.32946 215.42762 169.17578 215.62695 C 169.82103 216.07103 170.97587 216.59389 172.35742 217.00781 C 174.42562 217.62745 177.88195 219.61676 180.03711 221.42773 C 190.04903 229.84063 197.44316 232.04883 215.60742 232.04883 C 227.6625 232.04883 228.86208 232.2239 233.80078 234.72266 C 236.70879 236.19398 240.38017 238.9814 241.95898 240.91602 C 243.53778 242.85064 245.82526 245.45236 247.04102 246.69922 C 249.83035 249.55997 263.66011 256.53199 268.25781 257.39453 C 270.20712 257.76022 271.55524 258.53692 271.33203 259.16602 C 271.11342 259.78212 270.08984 260.13278 269.05859 259.94727 C 259.98585 258.31507 258.4886 258.75006 257.58984 263.25977 C 257.30415 264.69331 256.52747 265.16409 254.7832 264.96484 C 251.58843 264.59988 247.31562 260.44321 243.81641 254.29883 C 239.62558 246.94001 235.85936 243.70251 231.32617 243.56055 C 227.94317 243.45462 227.521 243.71372 227.24805 246.07227 C 227.01217 248.11058 227.73995 249.31115 230.47656 251.39844 C 232.41935 252.88028 235.42178 256.74703 237.15039 259.99023 C 240.94908 267.1173 246.61869 272.19628 252.73633 273.95508 C 257.27695 275.26049 257.27701 275.26078 257.00781 281.04297 C 256.71007 287.43792 258.50706 291.49805 261.63672 291.49805 C 264.74502 291.49805 266.08521 288.64217 266.67969 280.74609 C 267.25024 273.16794 267.25008 273.16678 268.9707 277.04883 C 269.91704 279.18398 271.37093 284.75686 272.20117 289.43359 C 273.03144 294.11034 275.88178 304.49963 278.53516 312.51953 C 283.35954 327.1012 283.35719 327.10066 278.79688 328.38867 C 274.82626 329.51013 274.11919 330.12194 273.33008 333.12695 C 272.83163 335.02516 272.63429 339.25637 272.89062 342.52734 C 273.35672 348.47453 273.35684 348.47317 267.9082 351.83398 C 259.86081 356.79771 249.40397 367.12775 243.83203 375.61523 C 238.41225 383.8709 231.88445 399.70604 230.10742 408.91016 C 229.47614 412.17985 228.75245 415.83499 228.49805 417.0332 C 228.1823 418.52036 225.8359 420.36581 221.10547 422.85156 C 217.29419 424.85434 214.17578 427.14329 214.17578 427.9375 C 214.17578 430.40556 221.06445 452.24655 222.32031 453.75977 C 223.18276 454.79895 224.96896 455.07101 228.81641 454.75195 C 234.12396 454.3118 234.12716 454.31278 236.99609 459.99609 C 238.574 463.1219 242.06871 468.59376 244.76367 472.1543 C 249.30956 478.16025 249.71246 479.15899 250.35352 486 C 250.92694 492.11919 250.7528 493.81888 249.33008 495.99023 C 247.93837 498.11425 247.7 500.19158 248.05859 507.02344 C 248.45481 514.57256 248.78335 515.73558 251.25781 518.31836 C 253.71779 520.88602 254.07478 522.12023 254.54883 529.71875 C 254.99065 536.80038 254.80126 538.54824 253.42383 540.07031 C 252.51228 541.07756 251.49367 544.1927 251.16211 546.99219 C 250.60218 551.71996 250.71086 552.08203 252.67969 552.08203 C 254.51045 552.08203 254.80138 551.50818 254.81445 547.87109 C 254.83295 542.7387 255.55322 541.49218 258.76172 541.03906 C 261.12971 540.70464 261.25305 540.93855 261.53711 546.38477 C 261.79199 551.27124 262.11036 552.08203 263.76758 552.08203 C 265.42386 552.08203 265.69727 551.38115 265.69727 547.16406 C 265.69727 543.16935 265.16567 541.63102 262.86328 538.98828 C 260.428 536.19301 259.92895 534.5878 259.33203 527.62109 C 258.69876 520.22978 258.81891 519.32758 260.68164 517.46484 C 264.14883 513.99766 262.9417 499.55901 258.81836 495.16992 C 257.2332 493.4826 256.7335 491.8959 256.96289 489.29492 C 257.27714 485.73162 257.27636 485.73218 263.32031 489.94727 C 278.38102 500.45074 294.29901 505.51367 312.26562 505.51367 C 326.094 505.51367 335.6049 503.39996 347.63281 497.65039 C 364.24191 489.71091 375.08977 479.09803 383.85352 462.21484 C 392.46159 445.63165 394.5828 438.24231 395.24023 422.5625 C 395.77831 409.72875 395.85009 409.38183 397.87305 410.00586 C 400.58174 410.84141 416.74848 421.30527 421.42578 425.25 C 426.01971 429.1244 435.04459 434.13462 437.47461 434.1582 C 439.90063 434.1817 456.75102 444.87853 457.98047 447.17578 C 459.24784 449.54388 470.85564 455.97181 473.86523 455.97266 C 477.32438 455.97364 493.03996 465.37828 494.33594 468.22266 C 495.30159 470.34203 500.25354 473.70314 505 476.02734 L 505 472.27734 C 502.09746 470.65415 499.25104 468.96091 498.68555 468.40625 C 497.00893 466.76167 498.08523 462.9082 500.2207 462.9082 C 500.93856 462.9082 502.88664 463.80607 505 464.9043 L 505 461.1543 C 503.44227 460.45949 502.01438 459.94839 501.04688 459.94531 C 497.58231 459.93391 482.34248 450.93068 478.91992 446.87305 C 476.39829 443.88352 467.79025 438.72753 463.74219 437.78125 C 460.73951 437.07935 444.32914 426.98231 442.67969 424.82227 C 441.14397 422.81112 430.14027 416.33989 428.25 416.33594 C 427.40052 416.33494 424.03142 414.52757 420.76172 412.32031 C 417.49203 410.11305 413.14534 407.43221 411.10352 406.36133 C 407.95803 404.71158 407.55733 404.14691 408.47852 402.67188 C 409.31903 401.32598 408.79608 398.12752 406.17383 388.57227 C 402.78194 376.21253 402.78163 376.21079 398.95898 375.89258 C 396.85654 375.71757 392.26712 376.07442 388.75781 376.68555 C 382.6029 377.75739 382.32326 377.71808 380.87891 375.51953 C 380.05539 374.266 375.02885 368.92185 369.70898 363.64648 C 361.16085 355.1699 358.84161 353.48087 349.77344 349.11523 C 338.30388 343.59351 329.75763 341.20779 317.89258 340.21875 C 309.87054 339.55006 309.86767 339.55333 307.63477 332.20312 C 305.36594 324.73456 304.03193 322.915 301.36719 323.66797 C 300.54977 323.89895 298.21359 324.38304 296.17578 324.74414 C 293.09997 325.28917 292.36625 325.0899 291.85352 323.56055 C 291.51384 322.54731 289.52688 317.19178 287.43945 311.66016 C 285.35202 306.12854 282.69428 296.54223 281.5332 290.35742 C 280.37213 284.17262 278.42442 276.62461 277.20312 273.58398 C 274.98264 268.05553 274.9816 268.05585 278.64844 263.92383 C 282.3153 259.79181 282.3157 259.79091 293.08008 259.76758 C 300.68562 259.75118 306.02495 259.15964 311.27539 257.75 C 322.88076 254.63423 340.65198 253.87725 408.87109 253.60352 C 472.28345 253.34905 472.28239 253.35092 488.29883 256.09961 C 497.29864 257.64413 501.84883 258.24387 505 258.21484 L 505 218.83594 C 505 217.0782 504.10266 215.59783 502.79883 214.62695 C 492.23333 214.60618 476.28795 214.58893 464.54883 214.57031 L 221.97852 214.57031 z M 322.81836 375.0293 C 323.17209 374.92199 323.70163 375.02009 324.4043 375.2168 C 328.26804 376.30185 340.38694 382.55821 343.27734 384.95898 C 346.05003 387.26198 346.05117 387.26211 337.54492 389.41602 C 332.86647 390.60066 328.45047 391.57031 327.73242 391.57031 C 326.96808 391.57031 325.54337 388.59234 324.29688 384.38672 C 322.26178 377.52049 321.7572 375.35109 322.81836 375.0293 z M 281.41992 383.64258 C 282.60313 383.64258 283.01903 384.89245 284.99805 394.38086 C 285.83209 398.37962 286.29886 402.00104 286.03516 402.42773 C 285.77144 402.85442 284.3205 403.46751 282.81055 403.78906 C 281.3006 404.11065 276.16283 405.46279 271.39453 406.79492 C 266.62622 408.12705 262.72656 408.82553 262.72656 408.34766 C 262.72656 407.86977 263.79679 405.12457 265.10547 402.24805 C 267.38361 397.24057 279.30735 383.64258 281.41992 383.64258 z M 402.70508 405.49219 C 403.17867 405.49219 403.31328 405.80466 402.92578 406.43164 C 402.58897 406.9766 401.56016 407.41613 400.63867 407.4082 C 399.19478 407.3945 399.16841 407.25937 400.44922 406.43164 C 401.41942 405.80466 402.23151 405.49219 402.70508 405.49219 z M 407.01562 408.87109 C 408.02524 408.84369 409.76889 409.62066 412.53906 411.30469 C 420.20417 415.96444 421.5279 417.07934 420.80078 418.25586 C 419.80479 419.86737 419.26763 419.65423 411.97461 414.76172 C 407.20205 411.56005 405.50232 409.90003 406.24023 409.16211 C 406.42471 408.97764 406.67908 408.88022 407.01562 408.87109 z M 426.45117 419.3125 C 428.53282 419.3125 440.08203 426.49958 440.08203 427.79492 C 440.08203 428.44542 439.47893 429.47841 438.74219 430.08984 C 437.72249 430.9361 436.24524 430.59205 432.55078 428.65039 C 429.88159 427.24755 426.85556 425.2792 425.82617 424.27539 C 423.84811 422.34647 424.23035 419.3125 426.45117 419.3125 z M 361.98438 420.14453 C 362.52011 420.18453 362.83138 420.32776 362.98047 420.5625 C 364.09635 422.31947 363.96866 428.0238 362.76367 430.27539 C 361.94061 431.81329 360.71655 432.17566 356.57031 432.10938 C 349.03686 431.98904 334.75534 428.19974 336.24023 426.71484 C 336.44022 426.51485 342.3614 424.77115 349.40039 422.8418 C 356.74541 420.82853 360.37716 420.02484 361.98438 420.14453 z M 443.96875 431.20312 C 445.29716 431.20312 455.59662 437.78197 456.46289 439.18359 C 457.8552 441.43642 456.14316 440.88359 450.32227 437.20312 C 444.33402 433.41685 441.99013 431.20312 443.96875 431.20312 z M 297.36328 440.11914 C 298.2232 440.11914 296.19307 445.4448 289.90234 459.68945 C 288.63887 462.55045 287.43403 464.89063 287.22656 464.89062 C 286.03712 464.89062 282.54102 459.99662 282.54102 458.33203 C 282.54102 454.25739 294.04742 440.11914 297.36328 440.11914 z M 463.15234 441.45312 C 464.05838 441.57934 465.48298 442.28362 468.23242 443.67578 C 475.46698 447.33897 477.48242 449.42982 475.76758 451.49609 C 475.08069 452.32373 474.23847 452.99426 473.89648 452.98633 C 472.68719 452.95963 464.97282 448.71071 462.40625 446.6582 C 460.08172 444.79925 459.95191 444.37756 461.1875 442.69336 C 461.85912 441.77785 462.2463 441.32688 463.15234 441.45312 z M 305.20703 441.82812 C 306.56921 441.69741 308.28329 441.76507 310.56641 441.85547 C 320.50463 442.24851 329.95816 444.91349 333.86914 448.42383 C 335.55947 449.94099 336.34604 450.15597 336.90234 449.25586 C 337.48871 448.3071 338.729 448.361 342.56445 449.5 C 345.26572 450.3022 348.3465 451.59582 349.41211 452.375 C 351.1243 453.62699 351.19706 454.07649 350.03906 456.24023 C 347.99372 460.06198 339.59195 465.91495 332.28906 468.60547 C 327.07561 470.52621 323.29261 471.12561 314.74414 471.38867 C 308.74969 471.57312 302.95318 471.50543 301.86328 471.23633 C 296.21855 469.84266 291.45898 467.54728 291.45898 466.2168 C 291.45898 465.40088 293.70458 459.50362 296.44727 453.11328 C 300.18726 444.39919 301.12051 442.22036 305.20703 441.82812 z M 481.10352 454.25195 C 481.40438 453.95108 491.32902 459.41907 492.51172 460.53711 C 492.73878 460.75174 492.51799 460.88653 492.01758 460.83789 C 490.69783 460.70936 480.68698 454.6685 481.10352 454.25195 z M 255.88281 498.07422 C 257.82222 498.35269 258.59303 500.90332 259.13867 507.1875 C 259.58569 512.33589 259.41667 514.52235 258.5332 515.06836 C 256.38292 516.39732 253.72979 516.13587 252.90234 514.51562 C 252.46076 513.65094 251.83075 509.91772 251.50195 506.21875 C 250.91632 499.63073 250.95614 499.47191 253.51758 498.49805 C 254.45899 498.14014 255.23634 497.9814 255.88281 498.07422 z " />
  <rect
     x="603"
     y="272.5"
     width="284"
     height="22"
     rx="5.47638"
     fill="#2e8555"
     id="rect26" />
  <rect
     x="537"
     y="352.5"
     width="416"
     height="15"
     rx="5.47638"
     fill="#2e8555"
     id="rect28" />
  <rect
     x="537"
     y="396.5"
     width="416"
     height="15"
     rx="5.47638"
     fill="#2e8555"
     id="rect30" />
  <rect
     x="537"
     y="440.5"
     width="416"
     height="15"
     rx="5.47638"
     fill="#2e8555"
     id="rect32" />
  <rect
     x="537"
     y="484.5"
     width="416"
     height="15"
     rx="5.47638"
     fill="#2e8555"
     id="rect34" />
  <rect
     x="865"
     y="552.5"
     width="88"
     height="26"
     rx="7.02756"
     fill="#3ecc5f"
     id="rect36" />
  <path
     d="M1088.60287,624.61594a30.11371,30.11371,0,0,0,3.98291-15.266c0-13.79652-8.54358-24.98081-19.08256-24.98081s-19.08256,11.18429-19.08256,24.98081a30.11411,30.11411,0,0,0,3.98291,15.266,31.248,31.248,0,0,0,0,30.53213,31.248,31.248,0,0,0,0,30.53208,31.248,31.248,0,0,0,0,30.53208,30.11408,30.11408,0,0,0-3.98291,15.266c0,13.79652,8.54353,24.98081,19.08256,24.98081s19.08256-11.18429,19.08256-24.98081a30.11368,30.11368,0,0,0-3.98291-15.266,31.248,31.248,0,0,0,0-30.53208,31.248,31.248,0,0,0,0-30.53208,31.248,31.248,0,0,0,0-30.53213Z"
     transform="translate(-35.5 -118.5)"
     fill="#3f3d56"
     id="path38" />
  <ellipse
     cx="1038.00321"
     cy="460.31783"
     rx="19.08256"
     ry="24.9808"
     fill="#3f3d56"
     id="ellipse40" />
  <ellipse
     cx="1038.00321"
     cy="429.78574"
     rx="19.08256"
     ry="24.9808"
     fill="#3f3d56"
     id="ellipse42" />
  <path
     d="M1144.93871,339.34489a91.61081,91.61081,0,0,0,7.10658-10.46092l-50.141-8.23491,54.22885.4033a91.566,91.566,0,0,0,1.74556-72.42605l-72.75449,37.74139,67.09658-49.32086a91.41255,91.41255,0,1,0-150.971,102.29805,91.45842,91.45842,0,0,0-10.42451,16.66946l65.0866,33.81447-69.40046-23.292a91.46011,91.46011,0,0,0,14.73837,85.83669,91.40575,91.40575,0,1,0,143.68892,0,91.41808,91.41808,0,0,0,0-113.02862Z"
     transform="translate(-35.5 -118.5)"
     fill="#3ecc5f"
     fill-rule="evenodd"
     id="path44" />
  <path
     d="M981.6885,395.8592a91.01343,91.01343,0,0,0,19.56129,56.51431,91.40575,91.40575,0,1,0,143.68892,0C1157.18982,436.82067,981.6885,385.60008,981.6885,395.8592Z"
     transform="translate(-35.5 -118.5)"
     opacity="0.1"
     id="path46" />
  <metadata
     id="metadata982">
    <rdf:RDF>
      <cc:Work
         rdf:about="">
        <dc:title>docu_tree</dc:title>
      </cc:Work>
    </rdf:RDF>
  </metadata>
</svg>
