<?xml version="1.0" encoding="UTF-8" standalone="no"?>
<!-- Created with Inkscape (http://www.inkscape.org/) -->

<svg
   version="1.1"
   id="svg2"
   width="340.12891"
   height="340.64062"
   viewBox="0 0 340.12891 340.64062"
   sodipodi:docname="logo.svg"
   inkscape:version="1.1 (c68e22c387, 2021-05-23)"
   xmlns:inkscape="http://www.inkscape.org/namespaces/inkscape"
   xmlns:sodipodi="http://sodipodi.sourceforge.net/DTD/sodipodi-0.dtd"
   xmlns="http://www.w3.org/2000/svg"
   xmlns:svg="http://www.w3.org/2000/svg"
   xmlns:rdf="http://www.w3.org/1999/02/22-rdf-syntax-ns#"
   xmlns:cc="http://creativecommons.org/ns#"
   xmlns:dc="http://purl.org/dc/elements/1.1/">
  <metadata
     id="metadata8">
    <rdf:RDF>
      <cc:Work
         rdf:about="">
        <dc:format>image/svg+xml</dc:format>
        <dc:type
           rdf:resource="http://purl.org/dc/dcmitype/StillImage" />
      </cc:Work>
    </rdf:RDF>
  </metadata>
  <defs
     id="defs6" />
  <sodipodi:namedview
     pagecolor="#ffffff"
     bordercolor="#666666"
     borderopacity="1"
     objecttolerance="10"
     gridtolerance="10"
     guidetolerance="10"
     inkscape:pageopacity="0"
     inkscape:pageshadow="2"
     inkscape:window-width="1920"
     inkscape:window-height="1020"
     id="namedview4"
     showgrid="false"
     fit-margin-top="0"
     fit-margin-left="0"
     fit-margin-right="0"
     fit-margin-bottom="0"
     inkscape:zoom="1.3841642"
     inkscape:cx="221.43327"
     inkscape:cy="138.71187"
     inkscape:window-x="0"
     inkscape:window-y="0"
     inkscape:window-maximized="1"
     inkscape:current-layer="svg2"
     inkscape:pagecheckerboard="0" />
  <path
     id="path819"
     style="fill:#e91e63;fill-opacity:1"
     d="M 53.845703,0 C 21.694721,0.10996338 0.03696848,0.26809197 0,0.47460937 v 0.0253906 c 0.04467772,0.47148505 1.7060709,1.34388033 3.765625,1.96093753 2.08737,0.625392 5.5748701,2.6331995 7.75,4.4609375 10.1047,8.490875 17.567801,10.71875 35.90039,10.71875 12.1668,0 13.376859,0.177302 18.361329,2.699219 2.93496,1.484953 6.640935,4.297453 8.234375,6.25 1.59344,1.952546 3.901896,4.579473 5.128906,5.83789 2.81519,2.887264 16.773762,9.924396 21.414055,10.794922 1.96738,0.369083 3.32685,1.152184 3.10157,1.787109 -0.22063,0.621801 -1.25216,0.976305 -2.29297,0.789063 -9.156819,-1.647317 -10.669071,-1.209686 -11.576171,3.341797 -0.28835,1.446824 -1.071601,1.921802 -2.832031,1.720703 -3.22438,-0.368331 -7.536729,-4.562346 -11.068359,-10.763672 -4.22967,-7.427019 -8.032232,-10.69461 -12.607422,-10.837891 -3.41436,-0.106927 -3.839765,0.154763 -4.115235,2.535157 -0.23807,2.057219 0.495853,3.268346 3.257813,5.375 1.96079,1.49557 4.991698,5.398612 6.736328,8.671875 3.83389,7.193115 9.556129,12.318636 15.730469,14.09375 4.5827,1.317522 4.582247,1.318539 4.310547,7.154297 -0.3005,6.454228 1.513225,10.550781 4.671875,10.550781 3.137121,0 4.489853,-2.882314 5.089843,-10.851563 0.57584,-7.648385 0.575931,-7.648504 2.312493,-3.730468 0.95511,2.154919 2.42182,7.779919 3.25977,12.5 0.83796,4.72008 3.7146,15.204594 6.39258,23.298828 4.86907,14.716788 4.8682,14.715668 0.26562,16.015618 -4.00742,1.13185 -4.72117,1.75036 -5.51758,4.78321 -0.50306,1.9158 -0.70208,6.18504 -0.44335,9.48633 0.47042,6.00231 0.46985,6.00258 -5.0293,9.39453 -8.121958,5.00973 -18.675246,15.43386 -24.298826,24 -5.47,8.33218 -12.058063,24.31409 -13.851563,33.60351 -0.63712,3.3 -1.36825,6.98992 -1.625,8.19922 -0.31867,1.50093 -2.686677,3.36425 -7.460937,5.87305 -3.8466,2.02133 -6.994141,4.33123 -6.994141,5.13281 0,2.49092 6.953203,24.5333 8.220703,26.06055 0.87044,1.04881 2.673541,1.32397 6.556641,1.00195 5.35674,-0.44422 5.358396,-0.443 8.253906,5.29297 1.59253,3.15478 5.119904,8.676 7.839844,12.26953 4.58802,6.06162 4.995578,7.0702 5.642578,13.97461 0.57873,6.17589 0.402697,7.89251 -1.033203,10.08398 -1.40461,2.14371 -1.645113,4.2396 -1.283203,11.13477 0.3999,7.61908 0.731125,8.79368 3.228515,11.40039 2.48277,2.59146 2.843816,3.83693 3.322266,11.50586 0.4459,7.14725 0.253481,8.91111 -1.136719,10.44727 -0.92,1.01659 -1.94662,4.16089 -2.28125,6.98632 -0.56513,4.77158 -0.45581,5.13672 1.53125,5.13672 1.84774,0 2.141097,-0.5792 2.154297,-4.25 0.01867,-5.17994 0.746135,-6.43916 3.984375,-6.89648 2.38992,-0.33751 2.514081,-0.10034 2.800781,5.39648 0.25723,4.93176 0.577409,5.75 2.25,5.75 1.67163,0 1.949219,-0.70866 1.949219,-4.96484 0,-4.03172 -0.537587,-5.58277 -2.861328,-8.25 -2.45784,-2.82116 -2.962013,-4.44141 -3.564453,-11.47266 -0.63915,-7.45981 -0.516719,-8.37 1.363281,-10.25 3.499321,-3.49932 2.280691,-18.07218 -1.880859,-22.50195 -1.59984,-1.70296 -2.104567,-3.3046 -1.873047,-5.92969 0.31716,-3.59632 0.316055,-3.59596 6.416015,0.6582 15.200278,10.6008 31.267268,15.71094 49.400388,15.71094 13.95651,0 23.55398,-2.13464 35.69336,-7.9375 16.76302,-8.01305 27.71166,-18.72402 36.55664,-35.76367 8.68783,-16.73687 10.82868,-24.19442 11.49219,-40.01953 0.54308,-12.95268 0.61649,-13.30168 2.6582,-12.67188 2.73379,0.84329 19.04887,11.40348 23.76953,15.38477 4.6365,3.91032 13.74668,8.96643 16.19922,8.99023 2.4485,0.0237 19.45446,10.82013 20.69531,13.13868 1.27911,2.39004 12.99378,8.87804 16.03125,8.8789 3.49121,9.9e-4 19.35217,9.49254 20.66016,12.36328 1.01811,2.23449 6.42616,5.86546 11.40234,8.21094 v -3.75195 c -3.15743,-1.74693 -6.39698,-3.67046 -7.01172,-4.27344 -1.69217,-1.65982 -0.60643,-5.54883 1.54883,-5.54883 0.80138,0 3.06595,1.05366 5.46289,2.33008 v -3.83789 c -1.84058,-0.86943 -3.51493,-1.47887 -4.6289,-1.48242 -3.49669,-0.0112 -18.87774,-9.09812 -22.33203,-13.19336 -2.545,-3.01722 -11.23279,-8.22269 -15.31836,-9.17774 -3.03051,-0.70841 -19.59309,-10.89805 -21.25782,-13.07812 -1.54997,-2.02977 -12.65472,-8.56045 -14.5625,-8.56445 -0.85736,-0.002 -4.25859,-1.82503 -7.55859,-4.05274 -3.3,-2.22772 -7.68535,-4.93481 -9.74609,-6.01562 -3.17463,-1.66503 -3.58011,-2.23395 -2.65039,-3.72266 0.84831,-1.35835 0.32037,-4.58668 -2.32618,-14.23047 -3.42333,-12.47428 -3.42318,-12.47572 -7.28125,-12.79687 -2.12193,-0.17663 -6.75503,0.18399 -10.29687,0.80078 -6.21195,1.08176 -6.49344,1.04117 -7.95117,-1.17774 -0.83115,-1.26515 -5.90427,-6.65817 -11.27344,-11.98242 -8.62734,-8.55515 -10.96694,-10.25992 -20.11914,-14.66601 -11.57585,-5.5729 -20.20273,-7.98032 -32.17774,-8.97852 -8.09636,-0.67489 -8.09798,-0.67348 -10.35156,-8.0918 -2.28987,-7.53777 -3.63673,-9.37323 -6.32617,-8.61328 -0.825,0.23312 -3.18354,0.7215 -5.24023,1.08594 -3.10432,0.55009 -3.84385,0.34821 -4.36133,-1.19531 -0.34284,-1.02262 -2.3483,-6.42688 -4.45508,-12.009766 -2.10677,-5.58288 -4.78912,-15.25788 -5.96094,-21.5 -1.17183,-6.24212 -3.13849,-13.860862 -4.37109,-16.929687 -2.24108,-5.579682 -2.24186,-5.579682 1.45898,-9.75 3.70083,-4.170314 3.70228,-4.16982 14.56641,-4.19336 7.67602,-0.01663 13.06418,-0.614418 18.36328,-2.037109 11.71291,-3.144655 29.64868,-3.907312 98.5,-4.183594 64,-0.256815 63.99921,-0.256591 80.16406,2.517578 9.64874,1.65589 14.29837,2.263719 17.49414,2.146485 V 0.0625 C 329.69818,0.039348 311.38979,0.0202569 298.66406,0 Z M 155.62109,161.94726 c 0.357,-0.10826 0.89044,-0.01 1.59961,0.18946 3.89954,1.0951 16.13165,7.40901 19.04883,9.83203 2.79838,2.32434 2.79796,2.32418 -5.78711,4.49804 -4.7218,1.19562 -9.17764,2.17383 -9.90234,2.17383 -0.77143,0 -2.20874,-3.0054 -3.4668,-7.25 -2.05395,-6.92986 -2.56319,-9.11858 -1.49219,-9.44336 z m -41.7832,8.69336 c 1.19417,0 1.61397,1.26155 3.61133,10.83789 0.84177,4.03582 1.31302,7.69046 1.04687,8.1211 -0.26616,0.43065 -1.72997,1.0485 -3.25391,1.37304 -1.52395,0.32455 -6.70898,1.68873 -11.52148,3.03321 -4.812496,1.34448 -8.749997,2.05066 -8.749997,1.56836 0,-0.48231 1.081544,-3.25306 2.402344,-6.15625 2.29926,-5.05389 14.332693,-18.77735 16.464843,-18.77735 z m 122.41015,22.05078 c 0.47798,0 0.61375,0.31642 0.22266,0.94922 -0.33992,0.55 -1.37855,0.99238 -2.30859,0.98438 -1.45727,-0.0132 -1.4841,-0.14898 -0.19141,-0.98438 0.97919,-0.6328 1.79937,-0.94922 2.27734,-0.94922 z m 4.34961,3.41016 c 1.01897,-0.0277 2.77839,0.7574 5.57422,2.45703 7.73614,4.70293 9.07371,5.82821 8.33985,7.01563 -1.0052,1.62644 -1.54761,1.4105 -8.90821,-3.52735 -4.8168,-3.23134 -6.53381,-4.90564 -5.78906,-5.65039 0.18619,-0.18619 0.44355,-0.2857 0.7832,-0.29492 z m 19.61524,10.53906 c 2.10094,0 13.75781,7.25321 13.75781,8.56055 0,0.65652 -0.608,1.69932 -1.35156,2.31641 -1.02915,0.85411 -2.5213,0.50652 -6.25,-1.45313 -2.69394,-1.41584 -5.74819,-3.40291 -6.78711,-4.41602 -1.99639,-1.94681 -1.61054,-5.00781 0.63086,-5.00781 z m -65.06446,0.83985 c 0.54071,0.0403 0.85539,0.18495 1.00586,0.42187 1.12623,1.77325 0.99742,7.53029 -0.21875,9.80274 -0.83069,1.55216 -2.06534,1.91846 -6.25,1.85156 -7.60325,-0.12147 -22.01819,-3.94665 -20.51953,-5.44532 0.20184,-0.20184 6.17898,-1.96095 13.28321,-3.9082 7.41309,-2.03191 11.0771,-2.84346 12.69921,-2.72265 z m 82.74415,11.16015 c 1.34072,0 11.73703,6.64007 12.61132,8.05469 1.40521,2.27369 -0.32243,1.71652 -6.19726,-1.99805 -6.04375,-3.82137 -8.41102,-6.05664 -6.41406,-6.05664 z m -147.9629,9 c 0.86789,0 -1.18222,5.37334 -7.53125,19.75 -1.27518,2.8875 -2.48981,5.25 -2.69921,5.25 -1.20045,0 -4.72852,-4.93912 -4.72852,-6.61914 0,-4.11239 11.61241,-18.38086 14.95898,-18.38086 z m 167.32422,1.3457 c 0.91444,0.12742 2.35398,0.83712 5.12891,2.24219 7.30161,3.69715 9.33424,5.80718 7.60351,7.89258 -0.69325,0.83532 -1.54352,1.51386 -1.88867,1.50586 -1.2205,-0.027 -9.00534,-4.31518 -11.5957,-6.38672 -2.34607,-1.87618 -2.47751,-2.30214 -1.23047,-4.00195 0.67786,-0.92398 1.06799,-1.37937 1.98242,-1.25196 z m -159.4082,0.37891 c 1.3748,-0.13196 3.10392,-0.0638 5.4082,0.0273 10.03032,0.3967 19.5723,3.08603 23.51953,6.6289 1.70599,1.53122 2.4991,1.74829 3.06055,0.83984 0.5918,-0.95756 1.84384,-0.90346 5.71484,0.2461 2.7263,0.80962 5.83664,2.11594 6.91211,2.90234 1.72806,1.26359 1.80154,1.71661 0.63282,3.90039 -2.0643,3.85718 -10.54351,9.76502 -17.91407,12.48047 -5.26177,1.93854 -9.0813,2.5431 -17.70898,2.8086 -6.05,0.18617 -11.9,0.11729 -13,-0.1543 -5.69704,-1.40658 -10.5,-3.72361 -10.5,-5.06641 0,-0.82348 2.26511,-6.77505 5.0332,-13.22461 3.77466,-8.79485 4.71741,-10.99279 8.8418,-11.38867 z m 177.52734,12.53906 c 0.30366,-0.30365 10.32003,5.2134 11.51368,6.3418 0.22916,0.21662 0.004,0.35379 -0.5,0.30469 -1.33198,-0.1297 -11.43408,-6.22608 -11.01368,-6.64649 z M 88.064453,286.13281 c 1.957389,0.28105 2.734461,2.85484 3.285156,9.19727 0.45116,5.19609 0.282275,7.40204 -0.609375,7.95312 -2.17021,1.34126 -4.848473,1.07863 -5.683593,-0.55664 -0.445681,-0.8727 -1.082213,-4.64175 -1.414063,-8.375 -0.59105,-6.64906 -0.550024,-6.80814 2.035156,-7.79102 0.95012,-0.36123 1.734256,-0.52142 2.386719,-0.42773 z" />
</svg>
